# xmcd
#
# Track frame offsets: 
#        150
#        11527
#        23063
#        34136
#        43826
#        54573
#        64396
#        74190
#        85914
#        94308
#        103758
#        113655
#        125410
#        135795
#        147792
#        158008
#        168796
#        179306
#        189311
#        203011
#        215690
#        228229
#        237899
#        249998
#
# Disc length: 3498 seconds
#
# Revision: 0
# Processed by: cddbd v1.5.2PL0 Copyright (c) Steve Scherf et al.
# Submitted via: ExactAudioCopy v1.0b3
#
DISCID=480da818
DTITLE=Marty Robbins - Essential [CD1]
DYEAR=1900
DGENRE=Country
TTITLE0=A White Sport Coat (And A Pink Carnation)
TTITLE1=The Story Of My Life
TTITLE2=Singing The Blues
TTITLE3=Just Married
TTITLE4=She Was Only Seventeen (He Was One Year More)
TTITLE5=Knee Deep In The Blues
TTITLE6=Stairway Of Love
TTITLE7=That's All Right
TTITLE8=Time And Place For Everything
TTITLE9=I Told My Heart
TTITLE10=Is There Any Chance
TTITLE11=The Blues Country Style
TTITLE12=Sittin' In The Tree House
TTITLE13=The Last Time I Saw My Heart
TTITLE14=Ain't I The Lucky One
TTITLE15=Once-A-Week Date
TTITLE16=Grown-Up Tears
TTITLE17=Mean Mama Blues
TTITLE18=Respectfully, Miss Brooks
TTITLE19=Mr. Teardrop
TTITLE20=You Don't Owe Me A Thing
TTITLE21=Call Me Up (And I'll Come Calling On You)
TTITLE22=I'll Go Alone
TTITLE23=Tomorrow You'll Be Gone
EXTD=
EXTT0=
EXTT1=
EXTT2=
EXTT3=
EXTT4=
EXTT5=
EXTT6=
EXTT7=
EXTT8=
EXTT9=
EXTT10=
EXTT11=
EXTT12=
EXTT13=
EXTT14=
EXTT15=
EXTT16=
EXTT17=
EXTT18=
EXTT19=
EXTT20=
EXTT21=
EXTT22=
EXTT23=
PLAYORDER=
